<svg xmlns="http://www.w3.org/2000/svg" version="1.1" xmlns:xlink="http://www.w3.org/1999/xlink" xmlns:svgjs="http://svgjs.dev/svgjs" width="128" height="128" viewBox="0 0 128 128"><g transform="matrix(0.8046875,0,0,0.8046875,12.221578124999994,40.180915107681706)"><svg viewBox="0 0 96 44" data-background-color="#ffffff" preserveAspectRatio="xMidYMid meet" height="58" width="128" xmlns="http://www.w3.org/2000/svg" xmlns:xlink="http://www.w3.org/1999/xlink"><g id="tight-bounds" transform="matrix(1,0,0,1,0.25950000000000273,0.45548813417084943)"><svg viewBox="0 0 95.481 43.08902373165829" height="43.08902373165829" width="95.481"><g><svg viewBox="0 0 95.481 43.08902373165829" height="43.08902373165829" width="95.481"><g><svg viewBox="0 0 95.481 43.08902373165829" height="43.08902373165829" width="95.481"><g id="textblocktransform"><svg viewBox="0 0 95.481 43.08902373165829" height="43.08902373165829" width="95.481" id="textblock"><g><svg viewBox="0 0 95.481 43.08902373165829" height="43.08902373165829" width="95.481"><g><svg viewBox="0 0 95.481 43.08902373165829" height="43.08902373165829" width="95.481"><g><svg xmlns="http://www.w3.org/2000/svg" xmlns:xlink="http://www.w3.org/1999/xlink" version="1.1" x="0" y="0" viewBox="9.543713070171185 30.756 80.75628692982882 36.444" style="enable-background:new 0 0 100 100;" xml:space="preserve" height="43.08902373165829" width="95.481" class="icon-icon-0" data-fill-palette-color="accent" id="icon-0"><g fill="#ffffff" data-fill-palette-color="accent"><path d="M63.8 67.2C73.2 67.2 86.4 66.3 90 61.6L90.3 61.3 90.2 53.5V52.3C90.1 51.5 90 49.3 70.8 46.2L47.8 31 47.6 30.9C47.5 30.9 44.6 30 42 32.7 39.2 34.8 31.5 39.8 27.4 39.6 26.1 38.5 21.5 34.6 17 33.8 15.3 33.5 13.4 33.3 12.1 34.6 10.2 36.4 10 40.5 11.2 51.3V52.4C11.1 52.7 10.9 53.1 10.7 53.7 10.4 54.3 9.1 57.3 9.7 65L9.8 66.1 54.2 66.9C55.2 67 59 67.2 63.8 67.2M13.5 53.3L13.6 53V51.1L29.1 51C29.2 51 40.5 51.4 47.6 54.9 48.1 55.2 51.3 57 56.4 58.4 55.7 58.4 55 58.3 54.4 58.3L12.3 57.5C12.4 55.8 13.2 54 13.5 53.3M13.8 36.4C14.2 36 15 36 16.6 36.2 21 37 26 41.6 26.1 41.7L26.4 42 26.8 42.1C32.6 42.9 42.6 35.5 43.7 34.7L43.9 34.6C45.2 33.3 46.5 33.3 46.9 33.4L51.5 36.5 48.8 39.7C48.4 40.2 48.4 41 48.9 41.5 49.1 41.7 49.4 41.8 49.7 41.8 50.1 41.8 50.4 41.6 50.7 41.4L53.6 37.9 57 40.1 54.2 43.4C53.8 43.9 53.8 44.7 54.4 45.2 54.6 45.4 54.9 45.5 55.2 45.5 55.6 45.5 55.9 45.3 56.2 45.1L59.2 41.5 62.7 43.8 59.6 47C59.2 47.5 59.2 48.3 59.8 48.8 60 49 60.3 49.1 60.6 49.1 61 49.1 61.3 48.9 61.6 48.7L64.6 45.1 69.9 48.6H70.2C83.5 50.8 87 52.4 87.7 52.9V54.1C80.9 58.4 68.9 57.5 68.8 57.5H68.6C56.8 57.6 48.9 52.9 48.8 52.8L48.7 52.7C41.1 48.9 29.6 48.5 29.1 48.5L13.3 48.6C12.8 43 12.5 37.6 13.8 36.4M12 60L54.3 60.8C55.3 60.9 59.1 61.1 63.9 61.1 71.9 61.1 82.5 60.4 87.7 57.3V60.4C83.1 65.2 62.1 64.9 54.2 64.4L12 63.6z" fill="#ffffff" data-fill-palette-color="accent"></path></g></svg></g></svg></g></svg></g></svg></g></svg></g></svg></g><defs></defs></svg><rect width="95.481" height="43.08902373165829" fill="none" stroke="none" visibility="hidden"></rect></g></svg></g></svg>