<svg xmlns="http://www.w3.org/2000/svg" version="1.1" xmlns:xlink="http://www.w3.org/1999/xlink" xmlns:svgjs="http://svgjs.dev/svgjs" width="2000" height="409" viewBox="0 0 2000 409"><g transform="matrix(1,0,0,1,-1.2121212121212466,-0.26926868433000095)"><svg viewBox="0 0 396 81" data-background-color="#ffffff" preserveAspectRatio="xMidYMid meet" height="409" width="2000" xmlns="http://www.w3.org/2000/svg" xmlns:xlink="http://www.w3.org/1999/xlink"><g id="tight-bounds" transform="matrix(1,0,0,1,0.2400000000000091,0.053327049952883954)"><svg viewBox="0 0 395.52 80.89334590009426" height="80.89334590009426" width="395.52"><g><svg viewBox="0 0 395.52 80.89334590009426" height="80.89334590009426" width="395.52"><g><svg viewBox="0 0 395.52 80.89334590009426" height="80.89334590009426" width="395.52"><g id="textblocktransform"><svg viewBox="0 0 395.52 80.89334590009426" height="80.89334590009426" width="395.52" id="textblock"><g><svg viewBox="0 0 395.52 80.89334590009426" height="80.89334590009426" width="395.52"><g transform="matrix(1,0,0,1,0,0)"><svg width="395.52" viewBox="-0.5499999999999998 -39.7 213.19 44.400000000000006" height="80.89334590009426" data-palette-color="#0c0a0f"><path d="M3.45-1.1L3.45-1.1 3.75-4.1 4.05-4.1Q6-2.4 8.45-1.45 10.9-0.5 13.3-0.5L13.3-0.5Q16.7-0.5 18.8-2.38 20.9-4.25 20.9-7.4L20.9-7.4Q20.9-9.15 20.13-10.65 19.35-12.15 17.57-13.7 15.8-15.25 12.7-17.05L12.7-17.05Q10.55-18.3 8.6-19.68 6.65-21.05 5.4-22.88 4.15-24.7 4.15-27.25L4.15-27.25Q4.15-31.05 6.9-33.38 9.65-35.7 14.15-35.7L14.15-35.7Q16.15-35.7 18.45-35.27 20.75-34.85 22-34.2L22-34.2 21.75-31.4 21.45-31.4Q18.6-34.5 14.15-34.5L14.15-34.5Q10.95-34.5 9-32.88 7.05-31.25 7.05-28.5L7.05-28.5Q7.05-26.45 8.13-24.98 9.2-23.5 10.9-22.33 12.6-21.15 14.55-20.05L14.55-20.05Q16.8-18.75 18.93-17.3 21.05-15.85 22.43-13.83 23.8-11.8 23.8-8.75L23.8-8.75Q23.8-5.95 22.5-3.83 21.2-1.7 18.82-0.5 16.45 0.7 13.3 0.7L13.3 0.7Q11.3 0.7 8.6 0.2 5.9-0.3 3.45-1.1ZM37.05 0L33.65 0 33.65-35 37.05-35 37.05-18.8 58.05-18.8 58.05-35 61.45-35 61.45 0 58.05 0 58.05-17.6 37.05-17.6 37.05 0ZM71.95-17.5L71.95-17.5Q71.95-21.35 73.32-24.68 74.7-28 77.17-30.48 79.65-32.95 82.97-34.33 86.3-35.7 90.15-35.7L90.15-35.7Q94-35.7 97.32-34.33 100.65-32.95 103.12-30.48 105.59-28 106.97-24.68 108.35-21.35 108.35-17.5L108.35-17.5Q108.35-13.65 106.97-10.33 105.59-7 103.12-4.53 100.65-2.05 97.32-0.68 94 0.7 90.15 0.7L90.15 0.7Q86.3 0.7 82.97-0.68 79.65-2.05 77.17-4.53 74.7-7 73.32-10.33 71.95-13.65 71.95-17.5ZM75.75-17.5L75.75-17.5Q75.75-12.4 77.55-8.58 79.35-4.75 82.6-2.63 85.85-0.5 90.15-0.5L90.15-0.5Q94.45-0.5 97.7-2.63 100.95-4.75 102.75-8.6 104.55-12.45 104.55-17.5L104.55-17.5Q104.55-22.55 102.75-26.38 100.95-30.2 97.7-32.35 94.45-34.5 90.15-34.5L90.15-34.5Q85.85-34.5 82.62-32.38 79.4-30.25 77.57-26.43 75.75-22.6 75.75-17.5ZM134.24 0L118.84 0 118.84-35 134.09-35 134.09-32.55 125.34-33.7Q123.04-34 122.24-34L122.24-34 122.24-18.75Q122.89-18.75 125.34-18.9L125.34-18.9 133.54-19.4 133.54-17.1 125.34-17.6Q122.89-17.75 122.24-17.75L122.24-17.75 122.24-1Q123.14-1 125.39-1.3L125.39-1.3 134.24-2.45 134.24 0ZM148.14 0L144.74 0 144.74-35 148.14-35 148.14 0ZM164.54 0L161.14 0 161.14-35 175.84-35 175.84-32.55 167.54-33.7Q165.29-34 164.54-34L164.54-34 164.54-18.35Q165.34-18.35 167.64-18.5L167.64-18.5 175.29-19 175.29-16.7 167.64-17.2Q165.34-17.35 164.54-17.35L164.54-17.35 164.54 0ZM196.69 0L193.09 0 193.09-14.8 180.69-35 184.49-35 195.64-16.7 195.94-16.7 204.84-35 208.64-35 196.69-15.5 196.69 0Z" opacity="1" transform="matrix(1,0,0,1,0,0)" fill="#000000" class="wordmark-text-0" data-fill-palette-color="primary" id="text-0"></path></svg></g></svg></g></svg></g></svg></g></svg></g><defs></defs></svg><rect width="395.52" height="80.89334590009426" fill="none" stroke="none" visibility="hidden"></rect></g></svg></g></svg>